<?xml version="1.0" standalone="no"?>
<!DOCTYPE svg PUBLIC "-//W3C//DTD SVG 20010904//EN"
 "http://www.w3.org/TR/2001/REC-SVG-20010904/DTD/svg10.dtd">
<svg version="1.0" xmlns="http://www.w3.org/2000/svg"
 width="56.000000pt" height="56.000000pt" viewBox="0 0 56.000000 56.000000"
 preserveAspectRatio="xMidYMid meet">
<metadata>
Created by potrace 1.16, written by Peter Selinger 2001-2019
</metadata>
<g transform="translate(0.000000,56.000000) scale(0.023333,-0.023333)"
fill="#000000" stroke="none">
<path d="M0 1200 l0 -1200 1200 0 1200 0 0 1200 0 1200 -1200 0 -1200 0 0
-1200z m872 929 c35 -11 146 -61 248 -111 102 -50 209 -99 239 -109 78 -27
150 -24 302 15 195 49 189 48 189 33 0 -10 -18 -16 -58 -20 -32 -4 -114 -23
-182 -43 -69 -20 -141 -36 -160 -36 -24 0 -96 30 -227 94 -106 52 -216 102
-245 112 -205 64 -373 61 -525 -9 l-53 -24 0 49 c0 44 3 49 28 58 15 6 107 11
204 11 155 1 186 -2 240 -20z m306 -28 c240 -120 302 -127 505 -56 170 60 167
59 167 49 0 -9 -236 -103 -325 -130 -58 -17 -86 -13 -170 26 -85 39 -302 160
-287 160 7 0 56 -22 110 -49z m-388 -95 c88 -19 179 -52 340 -124 252 -111
283 -117 478 -78 73 14 157 26 187 26 53 0 55 -1 55 -26 0 -23 -3 -25 -22 -19
-64 20 -152 17 -286 -11 l-137 -28 -205 88 c-261 112 -273 116 -405 123 -158
8 -234 -16 -347 -109 l-48 -39 0 55 c0 48 3 57 28 74 108 76 222 98 362 68z
m15 -116 c103 -15 210 -53 390 -139 181 -86 171 -84 430 -66 143 9 179 -2 223
-68 24 -37 27 -49 26 -131 0 -108 -20 -166 -95 -281 -63 -97 -209 -248 -319
-331 -112 -85 -282 -169 -383 -189 -168 -33 -321 28 -478 191 -155 163 -235
342 -246 554 -9 164 27 271 120 362 51 49 105 78 177 94 70 16 71 16 155 4z
m1085 -1490 c0 -127 -4 -200 -10 -200 -5 0 -10 9 -10 21 0 20 -1 20 -31 -5
-54 -46 -152 -29 -182 32 -37 72 -27 163 23 214 23 23 37 28 75 28 48 0 99
-20 108 -42 3 -7 6 24 6 70 1 47 5 82 11 82 6 0 10 -73 10 -200z m-980 69 l0
-20 26 20 c36 28 100 28 130 0 l23 -21 27 21 c40 32 106 29 133 -5 19 -24 21
-40 21 -145 0 -73 -4 -119 -10 -119 -6 0 -10 46 -10 118 0 101 -3 121 -17 134
-29 25 -52 29 -87 14 -44 -18 -56 -55 -56 -172 0 -56 -4 -94 -10 -94 -6 0 -10
46 -10 118 0 101 -3 121 -17 134 -28 24 -50 28 -84 16 -45 -15 -59 -58 -59
-173 0 -57 -4 -95 -10 -95 -6 0 -10 55 -10 145 0 90 4 145 10 145 6 0 10 -9
10 -21z m628 5 c20 -14 22 -23 22 -117 0 -115 6 -147 26 -147 8 0 14 -4 14
-10 0 -11 -11 -13 -34 -4 -9 3 -16 12 -16 20 0 18 -3 18 -42 -6 -39 -24 -105
-26 -135 -5 -12 9 -25 31 -29 49 -12 66 28 97 139 111 l57 6 0 38 c0 49 -21
66 -76 65 -47 -1 -71 -16 -85 -52 -5 -13 -13 -21 -18 -18 -15 10 0 45 27 66
31 25 117 27 150 4z"/>
<path d="M705 1837 c-73 -20 -132 -53 -192 -109 -95 -90 -133 -184 -133 -326
0 -103 19 -182 70 -287 75 -156 190 -280 315 -339 86 -41 141 -55 242 -61 l78
-4 -65 9 c-82 11 -137 30 -210 75 -175 106 -309 323 -341 549 -22 154 19 282
114 360 149 122 316 107 624 -55 l134 -71 167 7 c158 6 169 5 200 -15 20 -12
41 -39 54 -68 19 -42 20 -54 11 -109 -22 -125 -109 -259 -274 -418 -130 -126
-235 -195 -359 -237 -49 -16 -50 -18 -15 -12 65 10 183 63 278 127 113 75 274
229 331 316 131 199 125 407 -14 479 -43 22 -51 23 -160 16 -193 -13 -189 -14
-350 64 -80 38 -176 80 -215 92 -87 26 -222 34 -290 17z"/>
<path d="M760 1731 c-203 -62 -315 -288 -250 -502 30 -99 79 -194 138 -268 79
-98 156 -151 271 -185 89 -26 100 -18 26 18 -121 58 -222 167 -296 320 -94
194 -87 369 19 479 126 131 290 122 552 -32 116 -68 131 -70 273 -51 94 13
141 0 175 -50 20 -30 23 -44 19 -91 -16 -182 -284 -488 -512 -585 -33 -14 -46
-22 -30 -19 51 11 167 72 236 124 88 67 238 225 282 297 77 128 89 249 30 321
-44 56 -77 64 -223 57 l-125 -5 -135 69 c-169 87 -247 112 -349 111 -42 0 -87
-4 -101 -8z"/>
<path d="M827 1635 c-127 -48 -207 -159 -215 -296 -5 -88 10 -147 65 -249 99
-183 234 -285 393 -295 l55 -4 -51 8 c-86 14 -172 87 -266 225 -176 258 -162
486 36 561 91 35 186 11 364 -93 l93 -55 118 8 119 7 33 -30 c31 -28 34 -35
33 -89 -1 -161 -222 -427 -424 -510 -30 -12 -48 -23 -39 -23 9 0 54 19 100 42
72 35 102 59 205 162 130 130 172 196 194 301 20 95 -16 167 -93 185 -19 4
-76 3 -125 -3 l-91 -10 -84 51 c-146 90 -207 114 -300 118 -56 3 -94 -1 -120
-11z"/>
<path d="M898 1560 c-112 -34 -186 -134 -188 -253 -1 -140 153 -376 293 -449
109 -57 240 -13 383 128 135 133 193 241 181 341 -4 37 -12 54 -38 76 l-32 30
-99 -7 -99 -7 -87 53 c-150 90 -231 113 -314 88z m149 -55 c28 -8 93 -43 144
-76 l94 -62 61 12 c99 18 129 15 166 -18 29 -26 33 -36 33 -78 0 -79 -43 -153
-154 -264 -192 -191 -310 -208 -441 -62 -133 149 -201 342 -156 446 26 62 107
115 177 117 14 0 48 -7 76 -15z"/>
<path d="M909 1467 c-74 -39 -117 -127 -104 -212 12 -85 107 -247 180 -307 56
-47 94 -60 154 -56 84 6 145 40 242 137 100 99 132 154 132 226 2 89 -54 134
-140 114 -74 -17 -104 -11 -164 31 -135 94 -214 112 -300 67z m181 -52 c23 -8
70 -34 103 -56 l61 -42 81 13 c95 15 119 7 141 -45 11 -28 12 -40 0 -79 -33
-108 -191 -263 -304 -297 -37 -11 -47 -10 -77 4 -45 22 -138 135 -181 222 -66
133 -53 229 38 274 51 25 81 26 138 6z"/>
<path d="M959 1376 c-102 -69 -74 -227 66 -372 46 -48 69 -64 98 -70 75 -13
185 53 272 164 53 67 71 120 56 164 -20 57 -55 68 -148 47 -48 -11 -51 -11
-99 23 -75 54 -109 68 -161 68 -35 0 -58 -7 -84 -24z m162 -42 c17 -8 48 -31
70 -51 40 -36 41 -37 85 -25 63 17 84 15 111 -10 44 -41 28 -103 -49 -185 -89
-94 -163 -130 -223 -107 -39 15 -139 195 -151 270 -6 45 13 95 43 113 26 15
80 13 114 -5z"/>
<path d="M1022 1305 c-16 -14 -33 -37 -36 -51 -10 -39 19 -124 65 -194 79
-118 145 -118 262 0 62 64 67 72 67 113 0 31 -6 49 -20 62 -19 17 -30 17 -116
0 -26 -6 -34 -2 -57 28 -27 36 -81 67 -115 67 -11 0 -34 -11 -50 -25z"/>
<path d="M1723 465 c-45 -19 -65 -55 -65 -117 -1 -59 21 -111 51 -128 29 -15
83 -12 109 6 75 53 68 206 -12 239 -42 18 -43 18 -83 0z"/>
<path d="M1440 339 c-54 -10 -84 -41 -75 -78 9 -39 34 -53 83 -48 61 7 92 38
92 94 0 41 -2 43 -27 42 -16 -1 -48 -5 -73 -10z"/>
</g>
</svg>
