<?xml version="1.0" standalone="no"?>
<!DOCTYPE svg PUBLIC "-//W3C//DTD SVG 20010904//EN"
 "http://www.w3.org/TR/2001/REC-SVG-20010904/DTD/svg10.dtd">
<svg version="1.0" xmlns="http://www.w3.org/2000/svg"
 width="56.000000pt" height="56.000000pt" viewBox="0 0 56.000000 56.000000"
 preserveAspectRatio="xMidYMid meet">
<metadata>
Created by potrace 1.16, written by Peter Selinger 2001-2019
</metadata>
<g transform="translate(0.000000,56.000000) scale(0.019310,-0.019048)"
fill="#000000" stroke="none">
<path d="M0 1470 l0 -1470 1450 0 1450 0 0 1470 0 1470 -1450 0 -1450 0 0
-1470z m288 371 c9 -5 12 -25 10 -62 l-3 -54 -60 -5 -60 -5 -5 -55 -5 -55 -47
-5 c-77 -9 -90 0 -86 62 l3 53 55 3 c30 2 60 8 67 14 7 6 13 32 13 58 0 29 5
50 13 53 20 9 91 7 105 -2z m2139 -140 c10 -5 28 -4 49 5 51 21 219 18 269 -5
47 -21 82 -58 85 -86 1 -11 2 -91 1 -178 l-1 -158 -62 3 -63 3 -3 160 c-3 186
-2 185 -97 185 -95 0 -94 1 -97 -185 l-3 -160 -62 -3 -63 -3 0 153 c0 193 -2
198 -97 198 -98 0 -103 -7 -103 -141 0 -100 -2 -110 -25 -137 -42 -50 -92 -63
-241 -63 -113 0 -138 3 -172 20 -110 56 -110 160 -1 217 25 13 64 18 144 21
137 5 152 8 160 34 14 43 -7 49 -169 49 -83 0 -157 4 -164 9 -8 5 -12 22 -10
42 l3 34 172 3 c136 2 180 -1 209 -13 29 -12 40 -12 57 -2 45 25 238 24 284
-2z m-1999 -38 l-3 -58 -60 -5 -60 -5 -5 -54 c-6 -63 -16 -70 -88 -61 -45 5
-47 7 -50 39 -2 19 -1 44 2 57 6 22 12 24 65 24 67 0 71 5 71 76 l0 44 65 0
66 0 -3 -57z m570 -121 l2 -173 234 3 c243 3 266 7 266 48 0 27 -45 40 -143
40 -117 0 -162 13 -209 60 -65 64 -47 135 45 179 39 19 61 21 221 21 l177 0
-3 -42 -3 -43 -163 -5 c-130 -4 -165 -8 -172 -20 -14 -22 -12 -27 12 -44 17
-12 49 -16 128 -16 90 0 112 -4 157 -24 116 -54 116 -158 1 -217 -35 -18 -59
-19 -360 -17 l-323 3 -3 200 c-1 110 0 205 3 213 3 9 22 12 67 10 l63 -3 3
-173z m-548 -54 c3 -52 10 -92 18 -100 18 -18 179 -23 212 -6 23 13 25 20 30
103 l5 90 60 0 60 0 3 -148 3 -149 -198 4 c-182 3 -201 5 -240 25 -71 39 -83
62 -83 168 0 50 3 95 7 99 4 4 32 6 63 4 l55 -3 5 -87z"/>
<path d="M1809 1441 c-53 -43 20 -77 144 -67 79 6 97 17 97 57 l0 29 -109 0
c-93 0 -112 -3 -132 -19z"/>
</g>
</svg>
